<mxfile host="Electron" modified="2024-05-01T14:27:23.147Z" agent="Mozilla/5.0 (Windows NT 10.0; Win64; x64) AppleWebKit/537.36 (KHTML, like Gecko) draw.io/24.2.5 Chrome/120.0.6099.109 Electron/28.1.0 Safari/537.36" version="24.2.5" etag="JwJPl_egJppd6tRW38WI" type="device">
  <diagram id="jCHfkvzz7I8NQEXuV3df" name="Pagina-1">
    <mxGraphModel dx="875" dy="518" grid="1" gridSize="10" guides="1" tooltips="1" connect="1" arrows="1" fold="1" page="1" pageScale="1" pageWidth="827" pageHeight="1169" math="0" shadow="0">
      <root>
        <mxCell id="0" />
        <mxCell id="1" parent="0" />
        <mxCell id="NLN512p-wkgeO3gyrYz--1" value="&lt;span style=&quot;font-size: 8px;&quot;&gt;(1,N)&lt;/span&gt;" style="text;html=1;align=center;verticalAlign=middle;whiteSpace=wrap;rounded=1;strokeColor=none;glass=0;" vertex="1" parent="1">
          <mxGeometry x="321.99000000000007" y="151.00000000000003" width="22.5" height="6.75" as="geometry" />
        </mxCell>
        <mxCell id="NLN512p-wkgeO3gyrYz--2" value="&lt;font style=&quot;font-size: 8px;&quot;&gt;(0,N)&lt;/font&gt;" style="text;html=1;align=center;verticalAlign=middle;whiteSpace=wrap;rounded=1;strokeColor=none;glass=0;" vertex="1" parent="1">
          <mxGeometry x="419.69" y="150.99999999999994" width="22.5" height="6.75" as="geometry" />
        </mxCell>
        <mxCell id="NLN512p-wkgeO3gyrYz--3" value="" style="endArrow=none;html=1;rounded=0;entryX=1;entryY=0.5;entryDx=0;entryDy=0;exitX=0;exitY=0.5;exitDx=0;exitDy=0;" edge="1" parent="1">
          <mxGeometry width="50" height="50" relative="1" as="geometry">
            <mxPoint x="522.19" y="167.75" as="sourcePoint" />
            <mxPoint x="254" y="167.75" as="targetPoint" />
          </mxGeometry>
        </mxCell>
        <mxCell id="NLN512p-wkgeO3gyrYz--5" style="edgeStyle=orthogonalEdgeStyle;rounded=0;orthogonalLoop=1;jettySize=auto;html=1;exitX=0;exitY=0.5;exitDx=0;exitDy=0;endArrow=oval;endFill=0;" edge="1" parent="1">
          <mxGeometry relative="1" as="geometry">
            <mxPoint x="180" y="179.13" as="targetPoint" />
            <mxPoint x="200" y="176.24500000000012" as="sourcePoint" />
            <Array as="points">
              <mxPoint x="200" y="179.13" />
            </Array>
          </mxGeometry>
        </mxCell>
        <mxCell id="NLN512p-wkgeO3gyrYz--6" value="Visitatore" style="whiteSpace=wrap;html=1;align=center;" vertex="1" parent="1">
          <mxGeometry x="200" y="149.13" width="60" height="40.01" as="geometry" />
        </mxCell>
        <mxCell id="NLN512p-wkgeO3gyrYz--7" value="&lt;font style=&quot;font-size: 8px;&quot;&gt;Nome&lt;/font&gt;" style="text;html=1;align=center;verticalAlign=middle;whiteSpace=wrap;rounded=0;" vertex="1" parent="1">
          <mxGeometry x="200" y="116.63999999999999" width="25" height="10" as="geometry" />
        </mxCell>
        <mxCell id="NLN512p-wkgeO3gyrYz--8" value="&lt;font style=&quot;font-size: 8px;&quot;&gt;Cognome&lt;/font&gt;" style="text;html=1;align=center;verticalAlign=middle;whiteSpace=wrap;rounded=0;" vertex="1" parent="1">
          <mxGeometry x="220" y="106.63999999999999" width="60" height="30" as="geometry" />
        </mxCell>
        <mxCell id="NLN512p-wkgeO3gyrYz--11" style="edgeStyle=orthogonalEdgeStyle;rounded=0;orthogonalLoop=1;jettySize=auto;html=1;exitX=0.5;exitY=1;exitDx=0;exitDy=0;" edge="1" parent="1">
          <mxGeometry relative="1" as="geometry">
            <mxPoint x="631.99" y="131.44" as="sourcePoint" />
            <mxPoint x="631.99" y="131.44" as="targetPoint" />
          </mxGeometry>
        </mxCell>
        <mxCell id="NLN512p-wkgeO3gyrYz--12" value="&lt;font style=&quot;font-size: 8px;&quot;&gt;CF&lt;/font&gt;" style="text;html=1;align=center;verticalAlign=middle;whiteSpace=wrap;rounded=0;" vertex="1" parent="1">
          <mxGeometry x="160" y="153.51" width="20" height="10" as="geometry" />
        </mxCell>
        <mxCell id="NLN512p-wkgeO3gyrYz--13" style="edgeStyle=orthogonalEdgeStyle;rounded=0;orthogonalLoop=1;jettySize=auto;html=1;exitX=0;exitY=0;exitDx=0;exitDy=0;endArrow=oval;endFill=0;" edge="1" parent="1">
          <mxGeometry relative="1" as="geometry">
            <mxPoint x="210" y="131.13" as="targetPoint" />
            <mxPoint x="210" y="149.13" as="sourcePoint" />
            <Array as="points" />
          </mxGeometry>
        </mxCell>
        <mxCell id="NLN512p-wkgeO3gyrYz--14" style="edgeStyle=orthogonalEdgeStyle;rounded=0;orthogonalLoop=1;jettySize=auto;html=1;exitX=0;exitY=0;exitDx=0;exitDy=0;endArrow=oval;endFill=0;" edge="1" parent="1">
          <mxGeometry relative="1" as="geometry">
            <mxPoint x="250" y="131.13" as="targetPoint" />
            <mxPoint x="250" y="149.13" as="sourcePoint" />
            <Array as="points" />
          </mxGeometry>
        </mxCell>
        <mxCell id="NLN512p-wkgeO3gyrYz--15" value="&lt;font style=&quot;font-size: 8px;&quot;&gt;Email&lt;/font&gt;" style="text;html=1;align=center;verticalAlign=middle;whiteSpace=wrap;rounded=0;" vertex="1" parent="1">
          <mxGeometry x="150" y="175.13" width="30" height="7" as="geometry" />
        </mxCell>
        <mxCell id="NLN512p-wkgeO3gyrYz--16" style="edgeStyle=orthogonalEdgeStyle;rounded=0;orthogonalLoop=1;jettySize=auto;html=1;exitX=0;exitY=0.25;exitDx=0;exitDy=0;endArrow=oval;endFill=1;" edge="1" parent="1" source="NLN512p-wkgeO3gyrYz--6">
          <mxGeometry relative="1" as="geometry">
            <mxPoint x="180" y="159.13" as="targetPoint" />
            <mxPoint x="135" y="137.89" as="sourcePoint" />
            <Array as="points" />
          </mxGeometry>
        </mxCell>
        <mxCell id="NLN512p-wkgeO3gyrYz--17" style="edgeStyle=orthogonalEdgeStyle;rounded=0;orthogonalLoop=1;jettySize=auto;html=1;exitX=1;exitY=0.5;exitDx=0;exitDy=0;endArrow=oval;endFill=0;" edge="1" parent="1">
          <mxGeometry relative="1" as="geometry">
            <mxPoint x="279.88" y="182.63" as="targetPoint" />
            <mxPoint x="260" y="182.63" as="sourcePoint" />
            <Array as="points">
              <mxPoint x="274.88" y="182.63" />
            </Array>
          </mxGeometry>
        </mxCell>
        <mxCell id="NLN512p-wkgeO3gyrYz--18" value="&lt;font style=&quot;font-size: 8px;&quot;&gt;Visite&lt;/font&gt;&lt;div style=&quot;line-height: 30%;&quot;&gt;&lt;font style=&quot;font-size: 8px;&quot;&gt;E&lt;/font&gt;&lt;span style=&quot;font-size: 8px; background-color: initial;&quot;&gt;ffettuate&lt;/span&gt;&lt;/div&gt;" style="text;html=1;align=center;verticalAlign=middle;whiteSpace=wrap;rounded=1;strokeColor=none;" vertex="1" parent="1">
          <mxGeometry x="280" y="172.13" width="37" height="21" as="geometry" />
        </mxCell>
        <mxCell id="NLN512p-wkgeO3gyrYz--29" value="Oggetti Informatici" style="whiteSpace=wrap;html=1;align=center;" vertex="1" parent="1">
          <mxGeometry x="494.37" y="154.13" width="100" height="35" as="geometry" />
        </mxCell>
        <mxCell id="NLN512p-wkgeO3gyrYz--30" value="Visita" style="shape=rhombus;perimeter=rhombusPerimeter;whiteSpace=wrap;html=1;align=center;" vertex="1" parent="1">
          <mxGeometry x="353.56" y="146.64999999999998" width="67.5" height="39.99" as="geometry" />
        </mxCell>
        <mxCell id="NLN512p-wkgeO3gyrYz--35" value="&lt;font style=&quot;font-size: 8px;&quot;&gt;Misura&lt;/font&gt;" style="text;html=1;align=center;verticalAlign=middle;whiteSpace=wrap;rounded=1;strokeColor=none;" vertex="1" parent="1">
          <mxGeometry x="610.49" y="163.88" width="50" height="21" as="geometry" />
        </mxCell>
        <mxCell id="NLN512p-wkgeO3gyrYz--36" value="&lt;font style=&quot;font-size: 8px;&quot;&gt;Modello&lt;/font&gt;" style="text;html=1;align=center;verticalAlign=middle;whiteSpace=wrap;rounded=1;strokeColor=none;" vertex="1" parent="1">
          <mxGeometry x="570.62" y="116.63999999999999" width="40" height="20" as="geometry" />
        </mxCell>
        <mxCell id="NLN512p-wkgeO3gyrYz--37" value="&lt;font style=&quot;font-size: 8px;&quot;&gt;Marca&lt;/font&gt;" style="text;html=1;align=center;verticalAlign=middle;whiteSpace=wrap;rounded=1;strokeColor=none;glass=0;" vertex="1" parent="1">
          <mxGeometry x="531.25" y="119.13999999999999" width="50" height="15" as="geometry" />
        </mxCell>
        <mxCell id="NLN512p-wkgeO3gyrYz--38" value="&lt;font style=&quot;font-size: 8px;&quot;&gt;Ora&lt;/font&gt;" style="text;html=1;align=center;verticalAlign=middle;whiteSpace=wrap;rounded=1;strokeColor=none;glass=0;" vertex="1" parent="1">
          <mxGeometry x="286.18" y="130.63" width="50" height="15" as="geometry" />
        </mxCell>
        <mxCell id="NLN512p-wkgeO3gyrYz--39" value="&lt;font style=&quot;font-size: 8px;&quot;&gt;Ora Fine&lt;/font&gt;" style="text;html=1;align=center;verticalAlign=middle;whiteSpace=wrap;rounded=1;strokeColor=none;glass=0;" vertex="1" parent="1">
          <mxGeometry x="401.06" y="182.88" width="42" height="19" as="geometry" />
        </mxCell>
        <mxCell id="NLN512p-wkgeO3gyrYz--40" value="&lt;font style=&quot;font-size: 8px;&quot;&gt;Data&lt;/font&gt;" style="text;html=1;align=center;verticalAlign=middle;whiteSpace=wrap;rounded=1;strokeColor=none;glass=0;" vertex="1" parent="1">
          <mxGeometry x="284.18" y="116.63999999999999" width="50" height="15" as="geometry" />
        </mxCell>
        <mxCell id="NLN512p-wkgeO3gyrYz--47" style="edgeStyle=orthogonalEdgeStyle;rounded=0;orthogonalLoop=1;jettySize=auto;html=1;exitX=0.5;exitY=1;exitDx=0;exitDy=0;" edge="1" parent="1">
          <mxGeometry relative="1" as="geometry">
            <mxPoint x="420" y="422.49" as="sourcePoint" />
            <mxPoint x="420" y="422.49" as="targetPoint" />
          </mxGeometry>
        </mxCell>
        <mxCell id="NLN512p-wkgeO3gyrYz--60" style="edgeStyle=orthogonalEdgeStyle;rounded=0;orthogonalLoop=1;jettySize=auto;html=1;exitX=0;exitY=0;exitDx=0;exitDy=0;endArrow=oval;endFill=1;" edge="1" parent="1">
          <mxGeometry relative="1" as="geometry">
            <mxPoint x="499.37" y="136.13" as="targetPoint" />
            <mxPoint x="499.37" y="154.13" as="sourcePoint" />
            <Array as="points" />
          </mxGeometry>
        </mxCell>
        <mxCell id="NLN512p-wkgeO3gyrYz--61" value="&lt;font style=&quot;font-size: 8px;&quot;&gt;Numero di serie&lt;/font&gt;" style="text;html=1;align=center;verticalAlign=middle;whiteSpace=wrap;rounded=1;strokeColor=none;glass=0;" vertex="1" parent="1">
          <mxGeometry x="470" y="122.88999999999999" width="65.62" height="7.5" as="geometry" />
        </mxCell>
        <mxCell id="NLN512p-wkgeO3gyrYz--62" style="edgeStyle=orthogonalEdgeStyle;rounded=0;orthogonalLoop=1;jettySize=auto;html=1;exitX=0;exitY=0;exitDx=0;exitDy=0;endArrow=oval;endFill=0;" edge="1" parent="1">
          <mxGeometry relative="1" as="geometry">
            <mxPoint x="556.37" y="136.13" as="targetPoint" />
            <mxPoint x="556.37" y="154.13" as="sourcePoint" />
            <Array as="points" />
          </mxGeometry>
        </mxCell>
        <mxCell id="NLN512p-wkgeO3gyrYz--63" style="edgeStyle=orthogonalEdgeStyle;rounded=0;orthogonalLoop=1;jettySize=auto;html=1;exitX=0;exitY=0;exitDx=0;exitDy=0;endArrow=oval;endFill=0;" edge="1" parent="1">
          <mxGeometry relative="1" as="geometry">
            <mxPoint x="588.12" y="136.13" as="targetPoint" />
            <mxPoint x="588.12" y="154.13" as="sourcePoint" />
            <Array as="points" />
          </mxGeometry>
        </mxCell>
        <mxCell id="NLN512p-wkgeO3gyrYz--64" style="edgeStyle=orthogonalEdgeStyle;rounded=0;orthogonalLoop=1;jettySize=auto;html=1;exitX=1;exitY=0.5;exitDx=0;exitDy=0;endArrow=oval;endFill=0;" edge="1" parent="1">
          <mxGeometry relative="1" as="geometry">
            <mxPoint x="594.37" y="175.88" as="sourcePoint" />
            <mxPoint x="617.49" y="175.88" as="targetPoint" />
          </mxGeometry>
        </mxCell>
        <mxCell id="NLN512p-wkgeO3gyrYz--65" style="edgeStyle=orthogonalEdgeStyle;rounded=0;orthogonalLoop=1;jettySize=auto;html=1;exitX=1;exitY=0.5;exitDx=0;exitDy=0;endArrow=oval;endFill=0;" edge="1" parent="1">
          <mxGeometry relative="1" as="geometry">
            <mxPoint x="594.37" y="157.26" as="sourcePoint" />
            <mxPoint x="617.49" y="157.26" as="targetPoint" />
          </mxGeometry>
        </mxCell>
        <mxCell id="NLN512p-wkgeO3gyrYz--66" value="&lt;font style=&quot;font-size: 8px;&quot;&gt;Tecnologia&lt;/font&gt;" style="text;html=1;align=center;verticalAlign=middle;whiteSpace=wrap;rounded=1;strokeColor=none;" vertex="1" parent="1">
          <mxGeometry x="619.37" y="146.26" width="46" height="19" as="geometry" />
        </mxCell>
        <mxCell id="NLN512p-wkgeO3gyrYz--67" style="edgeStyle=orthogonalEdgeStyle;rounded=0;orthogonalLoop=1;jettySize=auto;html=1;exitX=0;exitY=0;exitDx=0;exitDy=0;endArrow=oval;endFill=0;" edge="1" parent="1">
          <mxGeometry relative="1" as="geometry">
            <mxPoint x="324.18" y="127.88999999999999" as="targetPoint" />
            <mxPoint x="343.56" y="127.88999999999999" as="sourcePoint" />
            <Array as="points" />
          </mxGeometry>
        </mxCell>
        <mxCell id="NLN512p-wkgeO3gyrYz--68" style="edgeStyle=orthogonalEdgeStyle;rounded=0;orthogonalLoop=1;jettySize=auto;html=1;endArrow=oval;endFill=0;" edge="1" parent="1">
          <mxGeometry relative="1" as="geometry">
            <mxPoint x="324.18" y="141.01" as="targetPoint" />
            <mxPoint x="344.18" y="141.01" as="sourcePoint" />
            <Array as="points" />
          </mxGeometry>
        </mxCell>
        <mxCell id="NLN512p-wkgeO3gyrYz--69" value="" style="endArrow=none;html=1;rounded=0;entryX=0.551;entryY=1.003;entryDx=0;entryDy=0;entryPerimeter=0;" edge="1" parent="1">
          <mxGeometry width="50" height="50" relative="1" as="geometry">
            <mxPoint x="353.68" y="166.63" as="sourcePoint" />
            <mxPoint x="353.68" y="143.57" as="targetPoint" />
          </mxGeometry>
        </mxCell>
        <mxCell id="NLN512p-wkgeO3gyrYz--70" value="&lt;p style=&quot;line-height: 110%;&quot;&gt;&lt;font style=&quot;font-size: 7px;&quot;&gt;DataVisita&lt;/font&gt;&lt;/p&gt;" style="ellipse;whiteSpace=wrap;html=1;" vertex="1" parent="1">
          <mxGeometry x="336.18" y="123.50999999999999" width="36.12" height="20" as="geometry" />
        </mxCell>
        <mxCell id="NLN512p-wkgeO3gyrYz--71" style="edgeStyle=orthogonalEdgeStyle;rounded=0;orthogonalLoop=1;jettySize=auto;html=1;exitX=1;exitY=0.5;exitDx=0;exitDy=0;endArrow=oval;endFill=0;" edge="1" parent="1" source="NLN512p-wkgeO3gyrYz--30">
          <mxGeometry relative="1" as="geometry">
            <mxPoint x="421.18" y="186.63" as="targetPoint" />
            <mxPoint x="422.38" y="206.26" as="sourcePoint" />
            <Array as="points">
              <mxPoint x="421.18" y="186.63" />
            </Array>
          </mxGeometry>
        </mxCell>
        <mxCell id="NLN512p-wkgeO3gyrYz--72" value="&lt;font style=&quot;font-size: 8px;&quot;&gt;Durata&lt;/font&gt;" style="text;html=1;align=center;verticalAlign=middle;whiteSpace=wrap;rounded=1;strokeColor=none;glass=0;" vertex="1" parent="1">
          <mxGeometry x="329.24" y="182.63" width="50" height="17" as="geometry" />
        </mxCell>
        <mxCell id="NLN512p-wkgeO3gyrYz--73" style="edgeStyle=orthogonalEdgeStyle;rounded=0;orthogonalLoop=1;jettySize=auto;html=1;exitX=1;exitY=0.5;exitDx=0;exitDy=0;endArrow=oval;endFill=0;" edge="1" parent="1">
          <mxGeometry relative="1" as="geometry">
            <mxPoint x="353.59" y="185.57999999999998" as="targetPoint" />
            <mxPoint x="353.59" y="165.57999999999998" as="sourcePoint" />
            <Array as="points">
              <mxPoint x="353.59" y="185.57999999999998" />
            </Array>
          </mxGeometry>
        </mxCell>
      </root>
    </mxGraphModel>
  </diagram>
</mxfile>
